<?xml version="1.0" standalone="no"?>
<!DOCTYPE svg PUBLIC "-//W3C//DTD SVG 20010904//EN"
 "http://www.w3.org/TR/2001/REC-SVG-20010904/DTD/svg10.dtd">
<svg version="1.0" xmlns="http://www.w3.org/2000/svg"
 width="400.000000pt" height="400.000000pt" viewBox="0 0 400.000000 400.000000"
 preserveAspectRatio="xMidYMid meet">
<metadata>
Created by potrace 1.14, written by Peter Selinger 2001-2017
</metadata>
<g transform="translate(0.000000,400.000000) scale(0.100000,-0.100000)"
fill="#000000" stroke="none">
<path d="M1905 3971 c-54 -24 -112 -91 -127 -144 -10 -40 -15 -45 -55 -55 -30
-8 -59 -28 -91 -60 -75 -74 -92 -165 -48 -258 28 -60 85 -111 144 -127 l42
-11 0 -76 0 -75 -87 -23 c-107 -27 -304 -123 -393 -191 -146 -110 -288 -284
-364 -446 -28 -59 -44 -104 -92 -262 -2 -9 -28 -13 -82 -13 l-79 0 -12 43
c-35 116 -162 189 -277 158 -62 -16 -120 -64 -149 -121 -14 -27 -25 -56 -25
-63 0 -9 -18 -19 -43 -25 -54 -14 -124 -74 -148 -126 -48 -105 -7 -234 91
-293 30 -18 64 -33 75 -33 16 0 23 -10 33 -45 15 -55 73 -122 127 -146 23 -11
63 -19 95 -19 32 0 72 8 95 19 54 24 112 91 127 146 l12 45 78 0 c55 0 80 -4
82 -12 71 -268 162 -435 326 -598 168 -167 327 -254 598 -326 8 -2 12 -27 12
-82 l0 -78 -42 -11 c-91 -25 -168 -127 -168 -223 0 -96 77 -198 168 -223 26
-7 42 -17 42 -27 1 -27 36 -94 66 -124 64 -64 177 -85 259 -47 54 24 112 91
127 144 10 39 15 45 52 55 89 24 166 127 166 222 0 96 -77 198 -167 223 l-43
11 0 78 c0 55 4 80 13 82 270 72 429 159 597 326 164 163 255 330 326 598 2 8
27 12 82 12 l78 0 12 -45 c15 -55 73 -122 127 -146 55 -25 138 -24 191 2 57
27 111 89 126 144 10 35 17 45 33 45 11 0 45 15 75 33 98 59 139 188 91 293
-23 51 -94 112 -146 125 -37 9 -43 15 -58 58 -22 63 -48 95 -105 129 -67 39
-157 39 -224 -1 -56 -33 -91 -76 -109 -134 l-12 -43 -84 0 c-76 0 -83 2 -83
19 0 32 -50 180 -86 256 -76 161 -218 336 -364 446 -89 68 -286 164 -392 191
l-88 23 0 75 0 76 43 11 c90 25 167 127 167 223 0 95 -77 198 -166 222 -37 10
-42 16 -52 55 -15 53 -73 120 -127 144 -23 11 -63 19 -95 19 -32 0 -72 -8 -95
-19z"/>
</g>
</svg>
