<?xml version="1.0" standalone="no"?>
<!DOCTYPE svg PUBLIC "-//W3C//DTD SVG 20010904//EN"
 "http://www.w3.org/TR/2001/REC-SVG-20010904/DTD/svg10.dtd">
<svg version="1.0" xmlns="http://www.w3.org/2000/svg"
 width="512.000000pt" height="512.000000pt" viewBox="0 0 512.000000 512.000000"
 preserveAspectRatio="xMidYMid meet">
<metadata>
Created by potrace 1.14, written by Peter Selinger 2001-2017
</metadata>
<g transform="translate(0.000000,512.000000) scale(0.100000,-0.100000)"
fill="#000000" stroke="none">
<path d="M2470 3820 c-70 -10 -209 -132 -221 -194 -3 -14 -18 -23 -59 -32 -30
-7 -127 -48 -215 -92 -178 -89 -230 -109 -310 -118 -49 -6 -54 -9 -50 -28 3
-11 7 -34 10 -51 5 -30 72 -427 81 -475 4 -26 10 -57 19 -100 3 -14 7 -41 9
-60 3 -19 14 -87 25 -150 12 -63 21 -118 21 -122 0 -5 8 -8 18 -8 15 0 42 -36
42 -55 0 -3 -25 -5 -55 -5 -37 0 -55 4 -56 13 0 6 -3 23 -5 37 -3 14 -18 104
-34 200 -17 96 -37 213 -45 260 -9 47 -17 99 -20 115 -2 17 -8 53 -14 80 -5
28 -12 68 -15 91 -20 135 -18 129 -61 128 -33 0 -40 -4 -38 -20 4 -44 13 -99
33 -196 11 -57 23 -116 26 -133 2 -16 11 -61 19 -100 21 -103 25 -127 30 -160
3 -16 7 -41 10 -55 3 -14 17 -86 30 -160 14 -74 28 -145 30 -157 5 -20 12 -23
48 -23 23 0 60 5 82 10 22 5 41 7 43 5 3 -2 -12 -34 -32 -71 -25 -45 -34 -70
-27 -77 9 -9 205 -14 651 -18 80 -1 455 11 505 16 17 2 38 4 47 4 34 2 138
137 138 179 0 9 7 11 23 6 84 -27 190 -51 234 -53 47 -2 53 0 57 21 7 30 24
124 31 165 3 17 16 88 30 158 14 69 28 140 30 158 3 18 25 135 50 262 24 126
43 231 41 232 -1 2 -20 4 -41 5 -43 3 -40 11 -59 -117 -4 -22 -11 -65 -16 -95
-5 -30 -12 -71 -15 -90 -3 -19 -8 -42 -10 -50 -2 -8 -6 -33 -9 -55 -4 -22 -9
-53 -12 -68 -3 -16 -7 -38 -9 -50 -1 -12 -8 -50 -14 -85 -7 -34 -14 -77 -16
-95 -3 -18 -11 -70 -20 -117 -8 -47 -15 -89 -15 -94 0 -12 -144 -1 -200 15
-57 16 -66 23 -79 61 -9 27 -9 29 7 23 68 -28 222 -56 222 -40 0 7 35 213 44
260 6 33 19 109 21 130 3 18 18 103 30 165 3 13 7 40 10 60 3 20 8 47 10 60 3
14 14 81 25 150 11 69 23 133 26 143 4 12 0 17 -16 17 -20 0 -20 1 -4 32 11
21 17 61 19 120 2 85 3 90 43 149 23 34 42 66 42 71 0 8 -3 9 -90 13 -30 2
-93 6 -140 10 -47 3 -110 8 -140 10 -81 6 -201 16 -231 20 -114 14 -457 24
-519 15z"/>
<path d="M703 1809 c-77 -38 -107 -124 -69 -197 51 -99 206 -114 275 -26 25
32 26 44 6 44 -8 0 -15 -4 -15 -8 0 -14 -58 -42 -98 -48 -136 -19 -193 148
-69 201 42 17 125 2 151 -28 18 -21 27 -24 51 -18 3 0 -2 15 -10 32 -33 63
-144 87 -222 48z"/>
<path d="M1040 1716 c-25 -61 -47 -118 -48 -126 -2 -8 -13 -25 -25 -37 l-20
-23 58 0 c55 0 57 1 42 18 -13 15 -14 21 -2 48 13 31 15 31 79 32 38 0 69 -5
75 -11 16 -20 24 -67 12 -67 -6 0 -11 -4 -11 -10 0 -5 23 -10 50 -10 l51 0
-20 28 c-10 15 -40 81 -66 147 l-47 121 -42 0 -42 1 -44 -111z m113 21 c25
-61 23 -65 -28 -64 -25 0 -45 4 -45 8 0 16 40 99 47 99 4 0 16 -19 26 -43z"/>
<path d="M1330 1804 c12 -31 9 -246 -3 -261 -7 -10 0 -13 32 -13 25 0 40 4 36
10 -3 5 -7 30 -9 55 -2 35 1 45 13 46 9 1 29 2 44 3 22 2 37 -7 70 -44 37 -42
86 -70 122 -70 21 0 12 26 -9 27 -20 2 -86 67 -86 85 0 4 6 8 14 8 23 0 56 50
56 86 0 20 -9 43 -24 61 -24 28 -26 28 -144 29 l-120 1 8 -23z m211 -34 c24
-13 25 -48 2 -66 -24 -18 -152 -19 -155 -1 0 6 -2 19 -3 27 -4 38 14 50 76 50
33 0 69 -5 80 -10z"/>
<path d="M1666 1821 c-2 -3 -7 -24 -11 -46 l-7 -40 24 23 c15 13 37 22 55 22
62 0 63 -2 63 -119 0 -70 -4 -111 -12 -119 -9 -9 -3 -12 30 -12 32 0 40 3 36
15 -9 22 -10 193 -2 215 10 27 76 28 105 1 26 -25 34 -18 23 20 -5 16 -8 33
-7 37 2 8 -292 12 -297 3z"/>
<path d="M2005 1679 l0 -149 123 0 c67 0 122 3 122 8 1 4 5 27 10 52 8 44 8
45 -10 23 -24 -31 -55 -41 -117 -38 -66 3 -73 9 -73 51 l0 35 65 -5 65 -5 0
29 0 30 -61 -4 c-66 -5 -76 3 -65 49 6 24 10 25 76 25 38 0 72 -4 75 -10 3 -5
15 -14 25 -20 18 -10 18 -8 6 32 l-12 43 -114 1 -115 1 0 -148z"/>
<path d="M2404 1791 c-8 -18 -14 -35 -14 -38 0 -2 -8 -23 -18 -46 -11 -23 -29
-68 -42 -100 -12 -31 -30 -62 -39 -67 -11 -7 1 -9 43 -10 48 0 56 2 47 14 -11
13 -5 74 8 78 3 1 36 2 73 3 65 2 67 1 79 -28 10 -23 10 -34 1 -48 -11 -18 -9
-19 43 -19 53 0 54 1 38 19 -9 11 -40 77 -69 148 l-53 128 -41 0 c-38 0 -43
-3 -56 -34z m80 -44 c31 -76 32 -74 -24 -73 -31 0 -49 4 -46 11 31 78 39 95
47 95 5 0 15 -15 23 -33z"/>
<path d="M2789 1796 c9 -41 6 -240 -4 -256 -6 -9 17 -11 98 -8 113 3 137 13
180 70 28 37 28 115 -1 155 -34 48 -83 66 -188 68 l-91 2 6 -31z m217 -47 c51
-48 35 -134 -30 -161 -31 -12 -113 -15 -124 -3 -12 12 -10 169 1 184 18 22
123 8 153 -20z"/>
<path d="M3119 1811 c11 -21 8 -252 -2 -268 -6 -10 20 -13 122 -13 105 0 131
3 131 14 0 7 3 29 6 47 l7 34 -26 -24 c-23 -21 -37 -24 -97 -24 -38 0 -72 2
-75 5 -4 3 -7 21 -8 39 l-2 34 66 -2 67 -1 -2 28 c-1 28 -1 28 -65 27 -56 -2
-64 0 -67 17 -6 43 13 56 80 56 49 0 69 -5 90 -21 29 -23 30 -21 15 30 l-11
37 -118 0 c-104 0 -118 -2 -111 -15z"/>
<path d="M3651 1811 c-5 -9 -30 -68 -55 -131 -26 -63 -54 -122 -63 -132 -15
-17 -13 -18 41 -18 52 0 56 1 42 16 -13 13 -14 20 -3 47 13 32 14 32 84 33 58
1 72 -2 76 -15 3 -9 8 -23 11 -32 4 -10 0 -23 -9 -33 -15 -15 -12 -16 40 -16
l56 0 -20 28 c-10 15 -40 81 -66 147 l-47 120 -39 2 c-28 1 -42 -4 -48 -16z
m72 -78 c9 -27 17 -50 17 -53 0 -3 -20 -6 -45 -7 -25 -1 -45 2 -45 7 0 17 39
100 48 100 4 0 16 -21 25 -47z"/>
<path d="M3896 1800 c2 -14 6 -63 7 -110 3 -96 19 -130 69 -151 41 -17 118
-14 157 6 45 23 58 63 63 182 l3 102 -32 -2 c-28 -2 -32 -5 -26 -22 12 -37 4
-178 -12 -201 -29 -44 -132 -43 -161 2 -12 18 -15 45 -12 123 l3 100 -32 -2
c-28 -2 -31 -5 -27 -27z"/>
<path d="M4241 1803 c12 -33 11 -230 -1 -254 -10 -17 -7 -19 29 -19 38 0 39 1
33 28 -4 15 -7 40 -7 56 0 28 2 30 43 30 51 1 50 2 86 -46 36 -48 145 -93 130
-53 -4 8 -10 12 -15 10 -9 -6 -89 70 -89 85 0 6 6 10 14 10 23 0 56 50 56 86
0 20 -9 44 -24 61 -24 28 -26 28 -144 29 l-120 1 9 -24z m210 -33 c11 -6 19
-21 19 -36 0 -32 -36 -46 -114 -42 -59 3 -60 3 -60 34 0 16 4 35 8 42 9 15
120 16 147 2z"/>
<path d="M2657 1439 c7 -7 15 -10 18 -7 3 3 -2 9 -12 12 -14 6 -15 5 -6 -5z"/>
<path d="M1920 1375 c-9 -89 -5 -95 48 -93 l47 1 -42 4 -42 4 -3 67 c-3 66 -3
66 -8 17z"/>
<path d="M2220 1350 l0 -70 43 0 c24 0 48 5 55 12 16 16 15 45 0 51 -10 3 -10
7 0 20 20 23 -17 57 -63 57 l-35 0 0 -70z m74 54 c19 -7 21 -40 4 -47 -9 -3
-7 -9 6 -19 31 -24 14 -48 -34 -48 -36 0 -40 2 -40 25 0 23 13 31 43 26 5 -1
6 3 3 8 -3 5 -15 7 -26 4 -17 -5 -20 0 -20 26 0 26 4 31 24 31 13 0 31 -3 40
-6z"/>
<path d="M2431 1348 c1 -47 4 -64 8 -48 4 14 12 25 18 25 6 0 15 3 19 7 3 4
-3 6 -15 3 -19 -3 -21 1 -21 36 0 35 3 39 24 39 13 0 31 -3 40 -6 21 -8 21
-50 0 -62 -15 -8 -15 -11 1 -36 10 -15 20 -24 23 -21 3 3 -2 13 -12 24 -15 16
-15 19 -1 24 9 4 15 19 15 36 0 35 -22 51 -69 51 l-31 0 1 -72z"/>
<path d="M2642 1348 c-22 -49 -26 -65 -13 -48 11 13 25 41 32 62 13 41 24 48
32 21 2 -10 8 -26 12 -35 5 -13 0 -17 -22 -21 -26 -4 -26 -4 5 -6 25 -1 35 -6
39 -21 3 -11 9 -20 14 -20 8 0 -43 116 -59 132 -5 5 -22 -22 -40 -64z"/>
<path d="M2839 1418 c0 -2 -2 -12 -4 -23 -3 -19 -3 -19 9 -2 15 19 38 22 67 7
25 -14 24 -35 -2 -53 -20 -15 -20 -15 6 -43 20 -22 23 -23 12 -6 -13 21 -13
27 1 53 16 29 16 31 -7 50 -18 15 -78 27 -82 17z"/>
<path d="M3039 1377 c-2 -24 -1 -57 2 -73 4 -19 7 -3 8 44 1 79 -5 97 -10 29z"/>
<path d="M3160 1350 l0 -70 48 2 47 1 -42 4 -43 4 0 59 0 59 43 4 42 4 -47 1
-48 2 0 -70z"/>
<path d="M2091 1403 c0 -5 4 -17 9 -28 8 -17 8 -16 7 8 -1 15 -5 27 -9 27 -4
0 -8 -3 -7 -7z"/>
<path d="M2834 1325 c0 -25 3 -40 7 -33 4 7 5 16 3 20 -5 7 11 12 29 9 5 -1 6
3 2 8 -3 6 -12 8 -20 5 -10 -4 -13 0 -10 15 2 12 0 21 -4 21 -4 0 -7 -20 -7
-45z"/>
<path d="M3190 1346 c7 -7 13 -7 20 0 6 6 3 10 -10 10 -13 0 -16 -4 -10 -10z"/>
<path d="M2090 1340 c0 -5 5 -10 10 -10 6 0 10 5 10 10 0 6 -4 10 -10 10 -5 0
-10 -4 -10 -10z"/>
<path d="M2095 1290 c-3 -5 -1 -10 4 -10 6 0 11 5 11 10 0 6 -2 10 -4 10 -3 0
-8 -4 -11 -10z"/>
</g>
</svg>
